PathFileType	3	(X/Y/Z)	D:\Jess\PFP\Labelled\PA17\20250829\SRRun01.trc
DataRate	CameraRate	NumFrames	NumMarkers	Units	OrigDataRate	OrigDataStartFrame	OrigNumFrames
250.0	250.0	6	33	mm	250.0	35625	2501
Frame#	Time	C7			T10			CLAV			LSHO			RSHO			LASIS			RASIS			LPSIS			RPSIS			LILCR			RILCR			LGTR			LTHI			LLTHI			LLEP			LPSH			LLSH			LDSH			LLMAL			LTOE			L5TH			LHEE			RGTR			RTHI			RLTHI			RLEP			RPSH			RLSH			RDSH			RLMAL			RTOE			R5TH			RHEE			
		X1	Y1	Z1	X2	Y2	Z2	X3	Y3	Z3	X4	Y4	Z4	X5	Y5	Z5	X6	Y6	Z6	X7	Y7	Z7	X8	Y8	Z8	X9	Y9	Z9	X10	Y10	Z10	X11	Y11	Z11	X12	Y12	Z12	X13	Y13	Z13	X14	Y14	Z14	X15	Y15	Z15	X16	Y16	Z16	X17	Y17	Z17	X18	Y18	Z18	X19	Y19	Z19	X20	Y20	Z20	X21	Y21	Z21	X22	Y22	Z22	X23	Y23	Z23	X24	Y24	Z24	X25	Y25	Z25	X26	Y26	Z26	X27	Y27	Z27	X28	Y28	Z28	X29	Y29	Z29	X30	Y30	Z30	X31	Y31	Z31	X32	Y32	Z32	X33	Y33	Z33	

626	142.496	796.756763723057	1489.927741810514	-1105.846618139098	795.6521275024568	1257.358940978961	-1023.226467087153	813.525117259921	1386.198714878322	-1246.000489437032	634.6125355514465	1464.025353838132	-1180.533260422682	976.3219334645387	1443.266073736574	-1162.039985794623	676.4239958796124	958.4465875778667	-1201.13957802227	924.0342441115054	951.932161187764	-1204.406351384462	779.3802446236534	1038.432345254331	-1004.1639425376	816.2067111298102	1037.733736346602	-1004.048323323151	630.1715103391847	1049.924999281769	-1128.917859087641	969.811983010555	1038.825637342469	-1135.479620556717	607.2842712373189	903.1182273374636	-1115.820989420245	706.3785870173444	707.4412315503869	-1196.672403578031	648.999188836162	619.3166842044527	-1069.488148390601	686.3086766495034	457.5861083948037	-1048.635651553588	750.5702284665485	387.4012801503115	-1071.284725282171	684.7030371463793	288.3239219726519	-945.8185106835527	747.689611469218	198.5070140336496	-961.019153157731	716.0001400324836	116.2745005838165	-871.8007170207152	715.0813371467472	59.72795634305579	-1000.422008140238	681.8949427615522	43.0352239004363	-969.7489108980789	754.7805219800524	91.93852570448743	-800.5705058952101	1000.818925187558	895.1732775573474	-1121.662190943843	900.8826229882485	742.6882461789023	-1274.938234456962	985.0243760957621	638.6134510385292	-1202.31851792366	957.0483037741053	486.9802838977732	-1234.428441799542	912.6060730339251	403.5954603846074	-1246.909912929089	948.6355080813468	367.8999266236061	-1090.810935879264	913.9621182689898	275.968969134745	-1084.827678308568	919.6060979895562	219.4470845837877	-966.4806270638917	947.7799949552727	97.83152081926639	-1043.977663978606	971.5637276897618	101.949929498585	-994.1555874709996	864.0397601061837	221.6326180056732	-899.5629102255729	
627	142.5	796.7001655816754	1492.186855475145	-1105.436863260445	794.3475764146352	1259.519099761025	-1023.562565010481	815.2375503375384	1389.100462801626	-1245.643043424737	635.6141854661284	1466.841829153393	-1182.248074879335	976.7049504199748	1446.092282032395	-1159.607995446376	677.4227043613097	959.5367043820931	-1202.332905136542	925.0140104623766	954.6716586180488	-1204.113507101913	777.9987627613091	1040.807459330135	-1005.002116829632	814.8401334457457	1040.270526640989	-1004.628940722948	630.1078247381303	1051.159397571045	-1132.194859411558	969.8039236842781	1041.764219908168	-1135.029971484644	607.6070841231465	904.1766209419328	-1117.155249598509	708.801867852032	708.1934373710965	-1193.401756128242	649.5625191561693	621.8931924028853	-1065.036817273264	686.2097125689858	460.4840347536488	-1040.548606329281	750.5931294944179	389.9082372974487	-1062.807015112179	684.6468908927237	291.1740627617351	-937.2854102767291	747.5359897015247	201.1185003481109	-952.7146648348576	715.9533283914445	118.7667290553447	-863.5182402036086	715.0669631775551	59.78348265433175	-991.158512490892	682.0873531348633	43.34400043383724	-960.1697804894069	754.8094326421061	95.37419036088046	-792.2298935851786	1001.561898718721	898.6549421925773	-1120.903654424153	902.0401023627027	747.1623983290472	-1275.545513064672	984.2674442761368	642.0763181839827	-1203.75117354586	955.8631947563885	489.953616963411	-1236.900117831998	911.2582108235729	406.9028184041067	-1251.266277905767	948.4495855770691	366.135749535954	-1096.70081711496	913.5416647342183	274.0945262974636	-1093.33223944917	919.9686081597008	213.6304846822227	-976.9218388706912	947.1152388875805	94.61704119412391	-1058.793054014295	971.2788858104636	96.8148317975008	-1009.037602978452	864.9530922824981	213.6622657052815	-909.500100877266	
628	142.504	796.6717342091538	1494.432539210358	-1105.052655370332	793.0610336574227	1261.700480391712	-1023.932162577094	816.9300672876396	1392.013428234657	-1245.27087297972	636.6556746078785	1469.675002562848	-1183.914890172342	977.0452649422073	1448.881831994242	-1157.244740604781	678.4316199619791	960.6070716244844	-1203.537921826503	925.9502308859842	957.4557412017241	-1203.873313784477	776.7358528525552	1043.203920238061	-1005.921702316549	813.5868071383399	1042.822653011513	-1005.315125752222	630.0926509304268	1052.376920375649	-1135.530088020142	969.770176180685	1044.775354438528	-1134.623374846807	607.9953180280769	905.2323407697437	-1118.477326961246	711.2973603917051	709.0440900089432	-1190.234652600715	650.1247240366757	624.5642384317186	-1060.705675481704	686.0388862319479	463.5359744568656	-1032.618314851543	750.5165532924024	392.5823329999913	-1054.505821149826	684.5412871693655	294.1847015068176	-928.9290437908508	747.3126904224071	203.8871124421022	-944.6156270419601	715.8781184399891	121.4228795563748	-855.4363595892099	715.0217904296342	59.82550020749225	-981.9978785274832	682.2686492850377	43.6792936437871	-950.6557318489228	754.8289469554702	99.06219646370431	-784.1009845876754	1002.338892419632	902.2249212516124	-1120.318328681074	903.1723787012637	751.6218759431096	-1276.142693320993	983.4479360418208	645.4490982396585	-1204.974862893866	954.6549666753042	492.833379925792	-1239.085847403072	909.864766575737	410.1784498617814	-1255.363272881817	948.2355921114824	364.2935864974116	-1102.559276309968	913.1252124910011	272.2141463919912	-1101.872697606242	920.314245500809	207.804456364376	-987.5929814658846	946.5189673558717	91.60247078127948	-1073.776115599745	971.0391767987483	91.88965940618112	-1024.144923512109	865.8141137096497	205.5887977001002	-919.7848851153717	
629	142.508	796.670702100086	1496.653968272884	-1104.695227576145	791.7937376017045	1263.894517055853	-1024.333964985107	818.5971084863075	1394.922804249551	-1244.883702710959	637.73463776607	1472.511813003384	-1185.533904140548	977.3428275225776	1451.622396972516	-1154.952934846128	679.4574443206377	961.6621263129105	-1204.752863730688	926.8341815973151	960.2955145037143	-1203.686758866983	775.5987870852647	1045.610341219616	-1006.917852957175	812.4530119464218	1045.378918247981	-1006.100802563259	630.1411701209835	1053.576530689227	-1138.894916722604	969.7135002130084	1047.867155099021	-1134.25218095989	608.4544085861422	906.2806546628306	-1119.779357125798	713.8297457676322	709.9671685534108	-1187.182190436535	650.6683715564163	627.3166267705919	-1056.498718640128	685.788965739228	466.7227697233299	-1024.872111506431	750.3265933203211	395.4061715910539	-1046.406928299728	684.3824332631866	297.3416105659463	-920.7674227993432	747.0119272212559	206.7994490560319	-936.7372970938566	715.7699058977768	124.2304712881592	-847.5660452164856	714.9422134700777	59.85453588137062	-972.9496820486438	682.4334450696776	44.04237975618936	-941.2181125010069	754.8370704962183	102.9876033878392	-776.1948232473316	1003.137102696125	905.8728270803248	-1119.899806255726	904.2600719227586	756.0467785195405	-1276.739283830115	982.5636531685702	648.7117063869412	-1205.985935748846	953.4318237111369	495.6029176116216	-1240.985752817242	908.4319221523908	413.4066702794298	-1259.197906450126	947.9971501642771	362.3814709028658	-1108.390055354023	912.7144663407047	270.3403390131028	-1110.446982067848	920.6427471966617	201.9976318998476	-998.4947254435308	945.9913074963616	88.81612079565666	-1088.912783083696	970.8459320503129	87.20912717735828	-1039.464293724441	866.6221878442974	197.4507110891308	-930.4218665898937	
630	142.512	796.6961317882162	1498.841408502423	-1104.36565911458	790.5464354372201	1266.092832887305	-1024.7665066912	820.2337728134976	1397.813818089538	-1244.481742048462	638.8487661952717	1475.339643443441	-1187.105898278938	977.5983909631049	1454.302489336795	-1152.735120571347	680.5055414688422	962.7058127513586	-1205.97625064973	927.6583862351354	963.1994349106446	-1203.554406854768	774.5922474599237	1048.01551588294	-1007.984087753728	811.4427255237899	1047.928275530539	-1006.97744326873	630.2678735952779	1054.757412355777	-1142.261787928242	969.636538800364	1051.044290057868	-1133.909430499261	608.9874854753841	907.3184032434514	-1121.054464545525	716.3612481722745	710.9388115185651	-1184.254200373735	651.1775859720085	630.137231383841	-1052.420155313129	685.4557248428088	470.0259014225712	-1017.334551601306	750.0132464588604	398.3616784474306	-1038.534047809737	684.168661482066	300.630494049814	-912.8160370482125	746.6278520020202	209.8411128139197	-929.0929666716976	715.6245733414536	127.1754558113513	-839.9168986901875	714.8258875886528	59.87252525833847	-964.0226241312955	682.5771464300403	44.435189795635	-931.8684248808556	754.8313673651562	107.1335023150367	-768.5208678474622	1003.943660618165	909.5855455904535	-1119.640302638982	905.2862806524028	760.4178794028509	-1277.343990612575	981.6133659827943	651.8479867492123	-1206.781148114732	952.2022306545932	498.2481106721768	-1242.601028606812	906.9673907323665	416.5732009366689	-1262.769446756792	947.7383012441264	360.4092740459325	-1114.196202801033	912.3105444016887	268.4869136110029	-1119.052018177003	920.9536512328003	196.2396758089463	-1009.624820993351	945.5291986286009	86.28626758380454	-1104.186917304748	970.6979012399031	82.80706607451552	-1054.980425935459	867.3776497604096	189.2889896510939	-941.411000935497	
631	142.516	796.7469118476404	1500.986096928768	-1104.064785126749	789.3196031606037	1268.287216355744	-1025.228018559221	821.8358549661666	1400.671768826582	-1244.06567628312	639.9957777023043	1478.146243779527	-1188.632057330347	977.8134911827733	1456.911405046045	-1150.59391419261	681.5795762486076	963.741408445553	-1207.206730226327	928.4168553605618	966.1724558618043	-1203.476374239049	773.7184601158422	1050.408709244708	-1009.112436864516	810.5577773624153	1050.460057603611	-1007.934452439258	630.4859160869769	1055.919296096057	-1145.604626698447	969.5416759563866	1054.307269642714	-1133.589033220913	609.5951382241379	908.3441821578731	-1122.296748726289	718.8525712349865	711.9377962647578	-1181.459371859944	651.6386505482244	633.012939505706	-1048.474504901471	685.0380663783029	473.4275021919171	-1010.02705080987	749.5708795890266	401.4301118577897	-1030.908682320214	683.9004344032744	304.0370774301112	-905.0878772590121	746.156794353859	212.9968335129849	-921.6937424810368	715.4385192907606	130.2426873123845	-832.4969073936629	714.6718011629468	59.8826746869915	-955.224077648028	682.6960961688313	44.86023106181419	-922.6178131661172	754.8088614388002	111.481720847119	-761.086839755031	1004.74620082742	913.3474845919707	-1119.531121698075	906.236976720275	764.7165017955914	-1277.964278898938	980.5974995178938	654.8457572220019	-1207.357796576985	950.9749347451759	500.7572027977426	-1243.934278636916	905.4803659577785	419.6652067482307	-1266.079542947558	947.4633643272555	358.3885264235861	-1119.979929376695	911.9139033709192	266.6687952570279	-1127.68345305855	921.2460847125507	190.5610689013086	-1020.97763794514	945.126286748623	84.04091789112559	-1119.579858717142	970.5910403858695	78.71615046389923	-1070.67563833467	868.0815384243141	181.1465684803945	-952.7471722356016	
